<?xml version="1.0" encoding="UTF-8" standalone="no"?>
<!-- Created with Inkscape (http://www.inkscape.org/) -->

<svg
   width="3023.6221"
   height="3023.6221"
   viewBox="0 0 800 800"
   version="1.1"
   id="svg8"
   sodipodi:docname="steps_down.svg"
   inkscape:export-filename="C:\a\GitHub\accessibilitat\icons\ramp_stroller.png"
   inkscape:export-xdpi="16.256001"
   inkscape:export-ydpi="16.256001"
   inkscape:version="1.2.1 (9c6d41e410, 2022-07-14)"
   xmlns:inkscape="http://www.inkscape.org/namespaces/inkscape"
   xmlns:sodipodi="http://sodipodi.sourceforge.net/DTD/sodipodi-0.dtd"
   xmlns="http://www.w3.org/2000/svg"
   xmlns:svg="http://www.w3.org/2000/svg"
   xmlns:rdf="http://www.w3.org/1999/02/22-rdf-syntax-ns#"
   xmlns:cc="http://creativecommons.org/ns#"
   xmlns:dc="http://purl.org/dc/elements/1.1/">
  <defs
     id="defs2" />
  <sodipodi:namedview
     id="base"
     pagecolor="#ffffff"
     bordercolor="#666666"
     borderopacity="1.0"
     inkscape:pageopacity="0.0"
     inkscape:pageshadow="2"
     inkscape:zoom="0.12374369"
     inkscape:cx="723.2692"
     inkscape:cy="1688.975"
     inkscape:document-units="mm"
     inkscape:current-layer="layer2"
     showgrid="false"
     units="px"
     inkscape:window-width="1920"
     inkscape:window-height="1027"
     inkscape:window-x="-8"
     inkscape:window-y="-8"
     inkscape:window-maximized="1"
     inkscape:showpageshadow="2"
     inkscape:pagecheckerboard="0"
     inkscape:deskcolor="#d1d1d1" />
  <metadata
     id="metadata5">
    <rdf:RDF>
      <cc:Work
         rdf:about="">
        <dc:format>image/svg+xml</dc:format>
        <dc:type
           rdf:resource="http://purl.org/dc/dcmitype/StillImage" />
      </cc:Work>
    </rdf:RDF>
  </metadata>
  <g
     inkscape:groupmode="layer"
     id="layer2"
     inkscape:label="Capa 2">
    <path
       style="fill:#4d4d4d;stroke-width:3.53358"
       d="m 674.33658,796.47496 c 44.38973,-10.64623 86.09104,-42.42707 107.40493,-81.85423 19.71397,-36.46732 20.22785,-44.33255 20.29551,-310.58071 0.0376,-148.96794 -1.33827,-251.64212 -3.5284,-263.25221 C 790.43116,97.96651 759.71469,54.45338 721.52938,31.73827 680.08012,7.08172 683.21494,7.32 400.3044,7.32 172.10492,7.32 144.37497,7.92754 123.22254,13.39064 62.832218,28.98783 16.611184,76.68555 3.7651469,136.66452 c -7.5543584,35.27242 -7.5543584,500.28077 0,535.55317 12.8460371,59.979 59.0670711,107.67673 119.4573931,123.27391 21.16991,5.46759 48.69479,6.06162 277.08186,5.97993 203.89174,-0.0728 257.58499,-1.05195 274.03218,-4.99657 z M 112.1565,760.75203 C 68.146076,740.12305 39.273131,703.97248 30.963919,659.09378 25.803627,631.22364 25.679008,183.64047 30.813551,152.27765 40.449394,93.52292 85.893585,48.43813 145.05238,38.94188 c 31.2719,-5.01979 479.21372,-5.01979 510.48543,0 57.46902,9.22498 103.74569,53.68661 114.55103,110.05813 4.9135,25.6339 4.50714,483.35625 -0.45298,509.90179 -5.65145,30.24722 -16.44042,50.41181 -38.81855,72.55231 -21.29021,21.06413 -45.77745,34.33985 -71.54452,38.78768 -8.86351,1.52997 -130.22495,2.53666 -269.69234,2.23705 l -253.57709,-0.54471 z m 607.17524,-104.7706 c 10.64162,-11.20716 10.40366,-30.54076 -0.49999,-40.67597 -7.8051,-7.2547 -11.58895,-7.68311 -67.85859,-7.68311 h -59.59261 v -49.63082 c 0,-47.98303 -0.29134,-49.9188 -8.76633,-58.30418 -8.47537,-8.38541 -10.43205,-8.67336 -58.92986,-8.67336 h -50.16353 v -49.63082 c 0,-47.98303 -0.29134,-49.9188 -8.76633,-58.30418 -8.44473,-8.35499 -10.5422,-8.67336 -57.14423,-8.67336 h -48.37771 v -41.87575 c 0,-70.61421 -4.02499,-74.73261 -73.03843,-74.73261 h -44.82129 v -44.34532 c 0,-45.99639 -3.86505,-61.83928 -16.23178,-66.53446 -3.17993,-1.20725 -35.10273,-2.195 -70.93965,-2.195 -63.491314,0 -65.357019,0.20923 -72.92397,8.17832 -10.641438,11.20716 -10.403667,30.54076 0.499976,40.67594 7.59026,7.05488 11.970889,7.68313 53.572584,7.68313 h 45.3066 v 49.63083 c 0,47.98301 0.29134,49.9188 8.76652,58.30418 8.47537,8.38538 10.43186,8.67335 58.92986,8.67335 h 50.16334 v 47.41441 c 0,26.07794 0.99807,49.98845 2.2187,53.13451 4.79452,12.36176 20.68948,16.05944 69.03411,16.05944 h 46.6071 v 47.41441 c 0,26.07794 0.99807,49.98845 2.21851,53.13451 4.74546,12.23543 20.75847,16.05944 67.24846,16.05944 h 44.82129 v 44.34532 c 0,45.99641 3.86487,61.83928 16.23179,66.53446 3.17975,1.20725 41.53121,2.195 85.22567,2.195 78.42428,0 79.54397,-0.10498 87.20979,-8.17831 z m -437.4406,-65.42185 c 3.25097,-3.55412 5.91081,-9.16637 5.91081,-12.47169 0,-3.30535 -13.25936,-25.44172 -29.46502,-49.19198 -16.20565,-23.75026 -29.95053,-44.22612 -30.5441,-45.50192 -0.59397,-1.27581 5.03172,-0.91619 12.50037,0.79908 23.45382,5.38657 39.68993,4.07186 43.81155,-3.54754 11.13616,-20.5871 2.01627,-27.43314 -49.96485,-37.50712 -51.80029,-10.03895 -58.35282,-10.40634 -65.17732,-3.65426 -4.8917,4.83964 -21.34246,82.1931 -21.34246,100.35408 0,9.43909 9.08643,18.31391 18.75047,18.31391 11.35776,0 17.83435,-9.07804 22.34899,-31.32582 l 4.56427,-22.4918 26.3881,38.39295 c 14.51344,21.11614 29.63155,41.97074 33.59566,46.34355 8.72273,9.62213 20.61787,10.24076 28.62353,1.48856 z"
       id="path1454"
       inkscape:connector-curvature="0" />
    <rect
       style="opacity:1;fill:#ffffff;fill-opacity:1;stroke:#0000ff;stroke-width:0;stroke-linecap:round;stroke-linejoin:round;stroke-miterlimit:4;stroke-dasharray:none;stroke-opacity:1"
       id="rect2114"
       width="192.43405"
       height="241.61165"
       x="96.217033"
       y="391.61215" />
    <rect
       y="-155.75584"
       x="8.5526171"
       height="241.61165"
       width="977.13739"
       id="rect2116"
       style="opacity:1;fill:#ffffff;fill-opacity:1;stroke:#0000ff;stroke-width:0;stroke-linecap:round;stroke-linejoin:round;stroke-miterlimit:4;stroke-dasharray:none;stroke-opacity:1" />
    <rect
       style="opacity:1;fill:#ffffff;fill-opacity:1;stroke:#0000ff;stroke-width:0;stroke-linecap:round;stroke-linejoin:round;stroke-miterlimit:4;stroke-dasharray:none;stroke-opacity:1"
       id="rect2118"
       width="977.13739"
       height="241.61165"
       x="-44.901287"
       y="697.36847" />
    <rect
       y="19.57295"
       x="733.38757"
       height="739.80206"
       width="126.15118"
       id="rect2120"
       style="opacity:1;fill:#ffffff;fill-opacity:1;stroke:#0000ff;stroke-width:0;stroke-linecap:round;stroke-linejoin:round;stroke-miterlimit:4;stroke-dasharray:none;stroke-opacity:1" />
    <rect
       style="opacity:1;fill:#ffffff;fill-opacity:1;stroke:#0000ff;stroke-width:0;stroke-linecap:round;stroke-linejoin:round;stroke-miterlimit:4;stroke-dasharray:none;stroke-opacity:1"
       id="rect2122"
       width="126.15118"
       height="739.80206"
       x="-44.901287"
       y="-42.433594" />
  </g>
  <g
     inkscape:label="Capa 1"
     inkscape:groupmode="layer"
     id="layer1"
     transform="translate(0,503)" />
</svg>
