<?xml version="1.0" encoding="UTF-8" standalone="no"?>
<!-- Created with Inkscape (http://www.inkscape.org/) -->

<svg
   width="3023.6221"
   height="3023.6221"
   viewBox="0 0 800 800"
   version="1.1"
   id="svg8"
   sodipodi:docname="steps_up.svg"
   inkscape:export-filename="C:\a\GitHub\accessibilitat\icons\ramp_stroller.png"
   inkscape:export-xdpi="16.256001"
   inkscape:export-ydpi="16.256001"
   inkscape:version="1.2.1 (9c6d41e410, 2022-07-14)"
   xmlns:inkscape="http://www.inkscape.org/namespaces/inkscape"
   xmlns:sodipodi="http://sodipodi.sourceforge.net/DTD/sodipodi-0.dtd"
   xmlns="http://www.w3.org/2000/svg"
   xmlns:svg="http://www.w3.org/2000/svg"
   xmlns:rdf="http://www.w3.org/1999/02/22-rdf-syntax-ns#"
   xmlns:cc="http://creativecommons.org/ns#"
   xmlns:dc="http://purl.org/dc/elements/1.1/">
  <defs
     id="defs2" />
  <sodipodi:namedview
     id="base"
     pagecolor="#ffffff"
     bordercolor="#666666"
     borderopacity="1.0"
     inkscape:pageopacity="0.0"
     inkscape:pageshadow="2"
     inkscape:zoom="0.12374369"
     inkscape:cx="715.18798"
     inkscape:cy="1688.975"
     inkscape:document-units="mm"
     inkscape:current-layer="layer2"
     showgrid="false"
     units="px"
     inkscape:window-width="1920"
     inkscape:window-height="1027"
     inkscape:window-x="-8"
     inkscape:window-y="-8"
     inkscape:window-maximized="1"
     inkscape:showpageshadow="2"
     inkscape:pagecheckerboard="0"
     inkscape:deskcolor="#d1d1d1" />
  <metadata
     id="metadata5">
    <rdf:RDF>
      <cc:Work
         rdf:about="">
        <dc:format>image/svg+xml</dc:format>
        <dc:type
           rdf:resource="http://purl.org/dc/dcmitype/StillImage" />
      </cc:Work>
    </rdf:RDF>
  </metadata>
  <g
     inkscape:groupmode="layer"
     id="layer2"
     inkscape:label="Capa 2">
    <rect
       style="fill:#ffffff;stroke:#ffffff;stroke-width:15;stroke-linecap:round"
       id="rect685"
       width="808.22296"
       height="812.49933"
       x="-4.276309"
       y="-6.4144597" />
    <path
       style="fill:#4d4d4d;stroke-width:3.53358"
       d="M 125.79491,796.47496 C 81.404277,785.82873 39.702099,754.04789 18.387754,714.62073 -1.3266146,678.15341 -1.8404962,670.28818 -1.9081755,404.04002 -1.9457751,255.07208 -0.56985611,152.3979 1.6203097,140.78781 9.6979344,97.96651 40.415032,54.45338 78.601155,31.73827 120.05127,7.08172 116.91639,7.32 399.83278,7.32 c 228.2042,0 255.93474,0.60754 277.08759,6.07064 60.39158,15.59719 106.61357,63.29491 119.45987,123.27388 7.55452,35.27242 7.55452,500.28077 0,535.55317 -12.8463,59.979 -59.06829,107.67673 -119.45987,123.27391 -21.17034,5.46759 -48.69579,6.06162 -277.08759,5.97993 -203.89596,-0.0728 -257.59033,-1.05195 -274.03787,-4.99657 z m 562.19174,-35.72293 c 44.01132,-20.62898 72.88487,-56.77955 81.19426,-101.65825 5.16041,-27.87014 5.28502,-475.45331 0.15039,-506.81613 C 759.69523,93.52292 714.2501,48.43813 655.09009,38.94188 c -31.27255,-5.01979 -479.22364,-5.01979 -510.496,0 -57.470217,9.22498 -103.747854,53.68661 -114.553401,110.05813 -4.913609,25.6339 -4.507246,483.35625 0.452983,509.90179 5.651567,30.24722 16.440759,50.41181 38.819357,72.55231 21.290635,21.06413 45.778401,34.33985 71.546001,38.78768 8.8637,1.52997 130.22764,2.53666 269.69791,2.23705 L 664.1393,771.93413 Z M 80.798821,655.98143 c -10.641835,-11.20716 -10.403869,-30.54076 0.500013,-40.67597 7.805243,-7.2547 11.5892,-7.68311 67.859986,-7.68311 h 59.59385 v -49.63082 c 0,-47.98303 0.29135,-49.9188 8.7665,-58.30418 8.47556,-8.38541 10.43228,-8.67336 58.93109,-8.67336 h 50.16457 v -49.63082 c 0,-47.98303 0.29135,-49.9188 8.7665,-58.30418 8.44491,-8.35499 10.54243,-8.67336 57.14544,-8.67336 h 48.37871 v -41.87575 c 0,-70.61421 4.02507,-74.73261 73.03994,-74.73261 h 44.82222 v -44.34532 c 0,-45.99639 3.86512,-61.83928 16.2321,-66.53446 3.18,-1.20725 35.10347,-2.195 70.94113,-2.195 63.49262,0 65.35836,0.20923 72.92548,8.17832 10.64165,11.20716 10.40389,30.54076 -0.49999,40.67594 -7.59042,7.05488 -11.97114,7.68313 -53.57369,7.68313 h -45.30754 v 49.63083 c 0,47.98301 -0.29135,49.9188 -8.76671,58.30418 -8.47554,8.38538 -10.43206,8.67335 -58.93107,8.67335 h -50.16439 v 47.41441 c 0,26.07794 -0.99807,49.98845 -2.21874,53.13451 -4.79463,12.36176 -20.6899,16.05944 -69.03554,16.05944 h -46.60806 v 47.41441 c 0,26.07794 -0.9981,49.98845 -2.21856,53.13451 -4.74554,12.23543 -20.7589,16.05944 -67.24985,16.05944 h -44.82222 v 44.34532 c 0,45.99641 -3.86495,61.83928 -16.23212,66.53446 -3.17983,1.20725 -41.53209,2.195 -85.22744,2.195 -78.4259,0 -79.545628,-0.10498 -87.211609,-8.17831 z M 518.2485,590.55958 c -3.25103,-3.55412 -5.91095,-9.16637 -5.91095,-12.47169 0,-3.30535 13.25963,-25.44172 29.46563,-49.19198 16.206,-23.75026 29.95116,-44.22612 30.54474,-45.50192 0.59399,-1.27581 -5.03184,-0.91619 -12.50063,0.79908 -23.4543,5.38657 -39.69075,4.07186 -43.81244,-3.54754 -11.13641,-20.5871 -2.01633,-27.43314 49.96587,-37.50712 51.80136,-10.03895 58.35402,-10.40634 65.17868,-3.65426 4.89179,4.83964 21.34288,82.1931 21.34288,100.35408 0,9.43909 -9.08661,18.31391 -18.75085,18.31391 -11.358,0 -17.83472,-9.07804 -22.34944,-31.32582 l -4.56437,-22.4918 -26.38864,38.39295 c -14.51375,21.11614 -29.63216,41.97074 -33.59637,46.34355 -8.72292,9.62213 -20.6183,10.24076 -28.62411,1.48856 z"
       id="path1454"
       inkscape:connector-curvature="0" />
    <rect
       style="opacity:1;fill:#ffffff;fill-opacity:1;stroke:#0000ff;stroke-width:0;stroke-linecap:round;stroke-linejoin:round;stroke-miterlimit:4;stroke-dasharray:none;stroke-opacity:1"
       id="rect2114"
       width="192.43405"
       height="241.61165"
       x="502.46671"
       y="398.02661" />
    <rect
       y="-155.75584"
       x="8.5526171"
       height="241.61165"
       width="977.13739"
       id="rect2116"
       style="opacity:1;fill:#ffffff;fill-opacity:1;stroke:#0000ff;stroke-width:0;stroke-linecap:round;stroke-linejoin:round;stroke-miterlimit:4;stroke-dasharray:none;stroke-opacity:1" />
    <rect
       style="opacity:1;fill:#ffffff;fill-opacity:1;stroke:#0000ff;stroke-width:0;stroke-linecap:round;stroke-linejoin:round;stroke-miterlimit:4;stroke-dasharray:none;stroke-opacity:1"
       id="rect2118"
       width="977.13739"
       height="241.61165"
       x="-44.901287"
       y="697.36847" />
    <rect
       y="19.57295"
       x="733.38757"
       height="739.80206"
       width="126.15118"
       id="rect2120"
       style="opacity:1;fill:#ffffff;fill-opacity:1;stroke:#0000ff;stroke-width:0;stroke-linecap:round;stroke-linejoin:round;stroke-miterlimit:4;stroke-dasharray:none;stroke-opacity:1" />
    <rect
       style="opacity:1;fill:#ffffff;fill-opacity:1;stroke:#0000ff;stroke-width:0;stroke-linecap:round;stroke-linejoin:round;stroke-miterlimit:4;stroke-dasharray:none;stroke-opacity:1"
       id="rect2122"
       width="126.15118"
       height="739.80206"
       x="-44.901287"
       y="-42.433594" />
  </g>
  <g
     inkscape:label="Capa 1"
     inkscape:groupmode="layer"
     id="layer1"
     transform="translate(0,503)" />
  <g
     inkscape:groupmode="layer"
     id="layer3"
     inkscape:label="Capa 3" />
</svg>
